<svg xmlns="http://www.w3.org/2000/svg" width="1200" height="820" viewBox="0 0 1200 820">
<style>.title{font-family:'Noto Sans TC','Arial',sans-serif} text{font-family:'Noto Sans TC','Arial',sans-serif} .grid{stroke:#e9f0f6;stroke-width:1} .route{fill:none;stroke:#1a2744;stroke-width:8;stroke-linecap:round;stroke-linejoin:round;stroke-dasharray:1 16} .label{filter:drop-shadow(0 5px 10px rgba(0,0,0,.12))} .pin{filter:drop-shadow(0 4px 8px rgba(0,0,0,.2))}</style>
<rect width="100%" height="100%" fill="#f7fbff"/>
<rect x="28" y="28" width="1144" height="764" rx="32" fill="#fffdf8" stroke="#d8e3f0" stroke-width="2"/>
<path d="M40,565 C210,505 300,640 470,585 S725,505 870,585 1050,700 1160,620" fill="none" stroke="#dff1ff" stroke-width="72" stroke-linecap="round" opacity=".9"/>
<path d="M40,565 C210,505 300,640 470,585 S725,505 870,585 1050,700 1160,620" fill="none" stroke="#b8daf0" stroke-width="3" stroke-dasharray="8 12" opacity=".9"/>
<line class="grid" x1="120" y1="110" x2="120" y2="760"/><line class="grid" x1="240" y1="110" x2="240" y2="760"/><line class="grid" x1="360" y1="110" x2="360" y2="760"/><line class="grid" x1="480" y1="110" x2="480" y2="760"/><line class="grid" x1="600" y1="110" x2="600" y2="760"/><line class="grid" x1="720" y1="110" x2="720" y2="760"/><line class="grid" x1="840" y1="110" x2="840" y2="760"/><line class="grid" x1="960" y1="110" x2="960" y2="760"/><line class="grid" x1="1080" y1="110" x2="1080" y2="760"/>
<line class="grid" x1="50" y1="160" x2="1150" y2="160"/><line class="grid" x1="50" y1="260" x2="1150" y2="260"/><line class="grid" x1="50" y1="360" x2="1150" y2="360"/><line class="grid" x1="50" y1="460" x2="1150" y2="460"/><line class="grid" x1="50" y1="560" x2="1150" y2="560"/><line class="grid" x1="50" y1="660" x2="1150" y2="660"/>
<text x="70" y="78" font-size="34" font-weight="900" fill="#1a2744" class="title">8/12（三）碎片塔 + 補位半日</text>
<text x="72" y="112" font-size="20" fill="#6b6b6b">London Bridge｜高空景觀與補位</text>
<rect x="900" y="34" width="240" height="138" rx="18" fill="#f0f6ff" stroke="#d8e3f0"/>
<text x="922" y="44" font-size="17" font-weight="800" fill="#1a5f9e" dominant-baseline="hanging">靜態每日區域圖</text>
<text x="920" y="58" font-size="16" fill="#1a2744">#天氣決策</text><text x="920" y="88" font-size="16" fill="#1a2744">#高空景觀</text><text x="920" y="118" font-size="16" fill="#1a2744">#補位日</text>
<path d="M954.4,235.4 L261.9,637.6 L221.9,627.9" class="route"/>
<g class="label"><rect x="865.0" y="225.4" width="300" height="62" rx="14" fill="white" stroke="#d8e3f0" stroke-width="2" opacity="0.96"/><text x="879.0" y="249.4" font-size="17" font-weight="800" fill="#1a2744">1. Moxy London Stratford</text><text x="879.0" y="273.4" font-size="13" fill="#6b6b6b">出發/回程</text></g><g class="label"><rect x="35.0" y="627.6" width="300" height="62" rx="14" fill="white" stroke="#d8e3f0" stroke-width="2" opacity="0.96"/><text x="49.0" y="651.6" font-size="17" font-weight="800" fill="#1a2744">2. The Shard</text><text x="49.0" y="675.6" font-size="13" fill="#6b6b6b">天氣好再上觀景台</text></g><g class="label"><rect x="251.9" y="655.9" width="300" height="62" rx="14" fill="white" stroke="#d8e3f0" stroke-width="2" opacity="0.96"/><text x="265.9" y="679.9" font-size="17" font-weight="800" fill="#1a2744">3. London Bridge / Borough</text><text x="265.9" y="703.9" font-size="13" fill="#6b6b6b">午餐與補位</text></g>
<g class="pin"><circle cx="954.4" cy="235.4" r="20" fill="#1a2744" stroke="white" stroke-width="5"/><text x="954.4" y="241.4" text-anchor="middle" font-size="18" font-weight="800" fill="white">1</text></g><g class="pin"><circle cx="261.9" cy="637.6" r="20" fill="#b5282d" stroke="white" stroke-width="5"/><text x="261.9" y="643.6" text-anchor="middle" font-size="18" font-weight="800" fill="white">2</text></g><g class="pin"><circle cx="221.9" cy="627.9" r="20" fill="#2d6a4f" stroke="white" stroke-width="5"/><text x="221.9" y="633.9" text-anchor="middle" font-size="18" font-weight="800" fill="white">3</text></g>
<g transform="translate(1040 690)"><circle cx="0" cy="0" r="42" fill="white" stroke="#d8e3f0"/><path d="M0,-28 L10,0 L0,28 L-10,0 Z" fill="#c9a84c"/><text x="0" y="-48" text-anchor="middle" font-size="18" font-weight="900" fill="#1a2744">N</text></g>
<text x="70" y="756" font-size="15" fill="#6b6b6b">此圖為離線友善的相對位置示意圖；實際導航請按「開啟 Google Maps 路線」。</text>
</svg>